# AST/ASF file generated using VICON BodyLanguage
# -----------------------------------------------
:version 1.10
:name VICON
:units
  mass 1.0
  length 0.45
  angle deg
:documentation
   .ast/.asf automatically generated from VICON data using
   VICON BodyBuilder and BodyLanguage model FoxedUp or BRILLIANT.MOD
:root
   order TX TY TZ RX RY RZ
   axis XYZ
   position 0 0 0  
   orientation 0 0 0 
:bonedata
  begin
     id 1 
     name lhipjoint
     direction 0.584852 -0.759097 0.285867 
     length 2.43633 
     axis 0 0 0  XYZ
  end
  begin
     id 2 
     name lfemur
     direction 0.34202 -0.939693 0  
     length 7.14704  
     axis 0 0 20  XYZ
    dof rx ry rz
    limits (-160.0 20.0)
           (-70.0 70.0)
           (-60.0 70.0)
  end
  begin
     id 3 
     name ltibia
     direction 0.342022 -0.939692 0   
     length 7.68483   
     axis 0 0 20   XYZ
    dof rx
    limits (-10.0 170.0)
  end
  begin
     id 4 
     name lfoot
     direction 0.0999605 -0.274639 0.956337   
     length 2.40452   
     axis -90 7.62852e-016 20   XYZ
    dof rx rz
    limits (-45.0 90.0)
           (-70.0 20.0)
  end
  begin
     id 5 
     name ltoes
     direction 1.53468e-011 -4.21881e-011 1   
     length 1.19837   
     axis -90 7.62852e-016 20   XYZ
    dof rx
    limits (-90.0 20.0)
  end
  begin
     id 6 
     name rhipjoint
     direction -0.569886 -0.769002 0.289597   
     length 2.40495  
     axis 0 0 0  XYZ 
  end
  begin
     id 7 
     name rfemur
     direction -0.34202 -0.939693 0   
     length 7.45086   
     axis 0 0 -20   XYZ
    dof rx ry rz
    limits (-160.0 20.0)
           (-70.0 70.0)
           (-70.0 60.0)
  end
  begin
     id 8 
     name rtibia
     direction -0.34202 -0.939693 0   
     length 7.76831   
     axis 0 0 -20   XYZ
    dof rx
    limits (-10.0 170.0)
 end
 begin
     id 9 
     name rfoot
     direction -0.0798572 -0.219406 0.97236   
     length 2.35911  
     axis -90 -7.62852e-016 -20   XYZ
    dof rx rz
    limits (-45.0 90.0)
           (-20.0 70.0)
  end
  begin
     id 10 
     name rtoes
     direction -1.53469e-011 -4.21728e-011 1   
     length 1.18261   
     axis -90 -7.62852e-016 -20   XYZ
    dof rx
    limits (-90.0 20.0)
  end
  begin
     id 11 
     name lowerback
     direction 0.0242088 0.999437 0.0232389   
     length 2.1561   
     axis 0 0 0   XYZ
    dof rx ry rz
    limits (-20.0 45.0)
           (-30.0 30.0)
           (-30.0 30.0)
  end
  begin
     id 12 
     name upperback
     direction -0.0356893 0.999013 -0.0264323   
     length 2.14431   
     axis 0 0 0   XYZ
    dof rx ry rz
    limits (-20.0 45.0)
           (-30.0 30.0)
           (-30.0 30.0)
  end
  begin
     id 13 
     name thorax
     direction -0.0472163 0.998194 -0.0371284   
     length 2.16169   
     axis 0 0 0   XYZ
    dof rx ry rz
    limits (-20.0 45.0)
           (-30.0 30.0)
           (-30.0 30.0)
  end
  begin
     id 14 
     name lowerneck
     direction 0.00863244 0.999921 0.00911972   
     length 1.58651   
     axis 0 0 0   XYZ
    dof rx ry rz
    limits (-20.0 45.0)
           (-30.0 30.0)
           (-30.0 30.0)
  end
  begin
     id 15 
     name upperneck
     direction 0.149523 0.979068 -0.138086   
     length 1.57486   
     axis 0 0 0   XYZ
    dof rx ry rz
    limits (-20.0 45.0)
           (-30.0 30.0)
           (-30.0 30.0)
  end
  begin
     id 16
     name head
     direction 0.0445219 0.997708 -0.0509576  
     length 1.6019  
     axis 0 0 0   XYZ
    dof rx ry rz
    limits (-20.0 45.0)
           (-30.0 30.0)
           (-30.0 30.0)
  end
  begin
     id 17 
     name lclavicle
     direction 0.911271 0.381667 -0.154644  
     length 3.80848  
     axis 0 0 0   XYZ
    dof ry rz
    limits (-20.0 10.0)
           (0.0 20.0)
  end
  begin
     id 18 
     name lhumerus
     direction 1 -4.49003e-011 2.1308e-027   
     length 5.19069   
     axis 180 -30 -90   XYZ
    dof rx ry rz
    limits (-60.0 90.0)
           (-90.0 90.0)
           (-90.0 90.0)
  end
  begin
     id 19
     name lradius
     direction 1 -4.48914e-011 4.01554e-027   
     length 3.30016   
     axis 180 -30 -90   XYZ
    dof rx
    limits (-10.0 170.0)
  end
  begin
     id 20
     name lwrist
     direction 1 -4.49003e-011 1.1934e-026   
     length 1.65008   
     axis -8.46377e-015 90 90   XYZ
    dof ry
    limits (-180.0 0.0)
 end
  begin
     id 21 
     name lhand
     direction 1 -4.49034e-011 2.38659e-026   
     length 0.707698   
     axis -1.52313e-014 90 90   XYZ
    dof rx rz
    limits (-90.0 90.0)
           (-45.0 45.0)
  end
  begin
     id 22 
     name lfingers
     direction 1 -4.48691e-011 4.77775e-026   
     length 0.570564   
     axis -3.04623e-014 90 90   XYZ
    dof rx
    limits (0.0 90.0)
  end
  begin
     id 23
     name lthumb
     direction 0.707107 -6.34832e-011 0.707107   
     length 0.819219   
     axis -90 45 -1.62303e-014   XYZ
    dof rx rz
    limits (-45.0 45.0)
           (-45.0 45.0)
  end
  begin
     id 24 
     name rclavicle
     direction -0.815579 0.573708 -0.0754329   
     length 3.54371  
     axis 0 0 0   XYZ 
    dof ry rz
    limits (-10.0 20.0)
           (-20.0 0.0)
  end
  begin
     id 25 
     name rhumerus
     direction -1 -4.48956e-011 3.05351e-028  
     length 5.23924   
     axis 180 30 90   XYZ
    dof rx ry rz
    limits (-90.0 60.0)
           (-90.0 90.0)
           (-90.0 90.0)
  end
  begin
     id 26 
     name rradius
     direction -1 -4.49013e-011 3.53849e-027   
     length 3.32953   
     axis 180 30 90   XYZ
    dof rx
    limits (-10.0 170.0)
  end
  begin
     id 27 
     name rwrist
     direction -1 -4.48901e-011 1.19374e-026   
     length 1.66477   
     axis -8.46377e-015 -90 -90   XYZ
    dof ry
    limits (-180.0 0.0)
  end
  begin
     id 28
     name rhand
     direction -1 -4.48877e-011 2.38764e-026   
     length 0.607414   
     axis -1.52313e-014 -90 -90   XYZ
    dof rx rz
    limits (-90.0 90.0)
           (-45.0 45.0)
  end
  begin
     id 29
     name rfingers
     direction -1 -4.48882e-011 4.77521e-026   
     length 0.489712   
     axis -3.04623e-014 -90 -90   XYZ
    dof rx
    limits (0.0 90.0)
  end
  begin
     id 30
     name rthumb
     direction -0.707107 -6.34974e-011 0.707107   
     length 0.703132   
     axis -90 -45 1.62303e-014   XYZ
    dof rx rz
    limits (-45.0 45.0)
           (-45.0 45.0)
  end
:hierarchy
  begin
    root lhipjoint rhipjoint lowerback
    lhipjoint lfemur
    lfemur ltibia
    ltibia lfoot
    lfoot ltoes
    rhipjoint rfemur
    rfemur rtibia
    rtibia rfoot
    rfoot rtoes
    lowerback upperback
    upperback thorax
    thorax lowerneck lclavicle rclavicle
    lowerneck upperneck
    upperneck head
    lclavicle lhumerus
    lhumerus lradius
    lradius lwrist
    lwrist lhand lthumb
    lhand lfingers
    rclavicle rhumerus
    rhumerus rradius
    rradius rwrist
    rwrist rhand rthumb
    rhand rfingers
  end

#!OML:ASF E:\VariousWalksJay\Project 1\Capture day 1\Session 1\Actor2.ASF
:FULLY-SPECIFIED
:DEGREES
583
root 6.0434 16.6836 7.1071 177.697 -76.5262 -172.287
lowerback 8.28359 0.570965 5.36873
upperback 6.48407 0.760956 -5.13421
thorax 2.30981 0.542508 -8.51447
lowerneck -5.23858 4.17915 -2.04544
upperneck 6.69574 4.17503 16.9579
head 2.42511 2.4565 5.63135
rclavicle 1.07344e-014 -1.59028e-015
rhumerus -68.2304 16.7701 -124.699
rradius 61.5663
rwrist 13.8002
rhand -0.895399 14.8548
rfingers 7.12502
rthumb 24.7325 -13.5664
lclavicle 1.07344e-014 -1.59028e-015
lhumerus -76.5461 -27.6023 132.822
lradius 60.3317
lwrist -0.796127
lhand -3.26933 -35.3803
lfingers 7.12502
lthumb 22.4555 -6.6658
rfemur -61.3287 1.8587 38.4532
rtibia 99.9438
rfoot -21.2134 6.32996
rtoes -36.6511
lfemur -16.9918 10.9572 -14.0802
ltibia 42.8649
lfoot -29.5955 -0.142495
ltoes -23.6497
584
root 6.04836 16.6024 7.11991 178.469 -75.5811 -173.467
lowerback 8.67304 0.800986 4.96593
upperback 6.73695 1.02194 -5.29472
thorax 2.40533 0.660069 -8.47721
lowerneck -5.15309 4.2311 -2.15802
upperneck 6.74149 4.23504 17.1104
head 2.41109 2.4835 5.69773
rclavicle -2.38542e-014 2.70347e-014
rhumerus -67.8101 16.8798 -124.573
rradius 61.3237
rwrist 15.0005
rhand -1.21651 15.531
rfingers 7.12502
rthumb 24.4247 -12.9321
lclavicle -2.38542e-014 2.70347e-014
lhumerus -76.2558 -27.7496 132.479
lradius 60.3722
lwrist -0.80746
lhand -3.16208 -35.754
lfingers 7.12502
lthumb 22.5584 -7.05194
rfemur -61.0673 1.10782 38.6734
rtibia 97.6639
rfoot -21.4424 5.4557
rtoes -36.5932
lfemur -17.3594 12.6293 -14.3784
ltibia 44.6479
lfoot -30.0917 0.378068
ltoes -23.4205
585
root 6.05439 16.5167 7.13147 179.351 -74.6255 -174.79
lowerback 9.08567 1.03548 4.49338
upperback 7.01864 1.276 -5.4894
thorax 2.51513 0.770122 -8.43856
lowerneck -5.02985 4.28939 -2.26539
upperneck 6.70345 4.31601 17.264
head 2.36381 2.51512 5.76091
rclavicle 2.38542e-015 -1.11319e-014
rhumerus -67.3583 17.0083 -124.469
rradius 61.0702
rwrist 16.2643
rhand -1.5709 16.1862
rfingers 7.12502
rthumb 24.0849 -12.3222
lclavicle 2.38542e-015 -1.11319e-014
lhumerus -75.9624 -27.9089 132.122
lradius 60.4183
lwrist -0.831719
lhand -3.14957 -36.1405
lfingers 7.12502
lthumb 22.5704 -7.43985
rfemur -60.8399 0.257073 38.8627
rtibia 95.0447
rfoot -21.6796 4.39738
rtoes -36.6107
lfemur -17.6856 14.3531 -14.7397
ltibia 46.386
lfoot -30.5735 0.938862
ltoes -23.1078
586
root 6.06159 16.4273 7.14275 180.373 -73.6799 -176.306
lowerback 9.53534 1.27453 3.95505
upperback 7.33137 1.52137 -5.72868
thorax 2.63444 0.871099 -8.41298
lowerneck -4.84402 4.35022 -2.3555
upperneck 6.57396 4.41344 17.418
head 2.27756 2.54765 5.81752
rclavicle -2.14687e-014 5.24792e-014
rhumerus -66.8777 17.1275 -124.388
rradius 60.8105
rwrist 17.5957
rhand -2.02467 16.7547
rfingers 7.12502
rthumb 23.6497 -11.8106
lclavicle -2.14687e-014 5.24792e-014
lhumerus -75.6985 -28.1097 131.764
lradius 60.4975
lwrist -0.854262
lhand -3.13879 -36.5589
lfingers 7.12502
lthumb 22.5808 -7.85957
rfemur -60.6149 -0.713697 38.9991
rtibia 92.0687
rfoot -21.9313 3.12837
rtoes -36.8072
lfemur -17.9363 16.0334 -15.1806
ltibia 48.0396
lfoot -31.0509 1.50695
ltoes -22.6251
587
root 6.06987 16.3351 7.15425 181.519 -72.7598 -178.015
lowerback 10.0384 1.5193 3.35621
upperback 7.67905 1.75746 -6.00875
thorax 2.75895 0.96186 -8.40055
lowerneck -4.57487 4.40986 -2.43915
upperneck 6.35487 4.52398 17.5723
head 2.1494 2.5783 5.86868
rclavicle 1.59028e-014 -1.03368e-013
rhumerus -66.3723 17.2158 -124.313
rradius 60.547
rwrist 18.9862
rhand -2.57462 17.2093
rfingers 7.12502
rthumb 23.1222 -11.4232
lclavicle 1.59028e-014 -1.03368e-013
lhumerus -75.4521 -28.3652 131.411
lradius 60.6018
lwrist -0.87222
lhand -3.04312 -37.0074
lfingers 7.12502
lthumb 22.6726 -8.31925
rfemur -60.358 -1.80601 39.0618
rtibia 88.7246
rfoot -22.1876 1.71383
rtoes -37.0468
lfemur -18.0683 17.5891 -15.6974
ltibia 49.5661
lfoot -31.539 2.07516
ltoes -22.0823
588
root 6.07872 16.2413 7.16676 182.799 -71.8742 -179.936
lowerback 10.599 1.7718 2.70607
upperback 8.05629 1.98502 -6.32928
thorax 2.88206 1.04226 -8.40747
lowerneck -4.21274 4.46304 -2.51715
upperneck 6.07404 4.63729 17.7222
head 1.98704 2.60254 5.9132
rclavicle -4.53229e-014 -1.59028e-014
rhumerus -65.8409 17.2299 -124.225
rradius 60.2702
rwrist 20.4309
rhand -3.20712 17.5479
rfingers 7.12502
rthumb 22.5152 -11.1594
lclavicle -4.53229e-014 -1.59028e-014
lhumerus -75.2327 -28.6848 131.079
lradius 60.7392
lwrist -0.876247
lhand -2.79534 -37.4698
lfingers 7.12502
lthumb 22.9104 -8.81095
rfemur -60.0442 -3.00436 39.0223
rtibia 85.0059
rfoot -22.4482 0.175267
rtoes -37.3707
lfemur -18.0494 18.9408 -16.289
ltibia 50.9271
lfoot -32.0567 2.59343
ltoes -21.5134
589
root 6.0875 16.1468 7.18063 184.191 -71.0257 -182.052
lowerback 11.2147 2.03488 2.01353
upperback 8.46139 2.20602 -6.68184
thorax 3.00463 1.11302 -8.43088
lowerneck -3.75565 4.50579 -2.60351
upperneck 5.75865 4.74512 17.8702
head 1.79852 2.61724 5.95484
rclavicle 4.29375e-014 5.88403e-014
rhumerus -65.2996 17.1755 -124.105
rradius 60.0013
rwrist 21.8744
rhand -3.88127 17.7644
rfingers 7.12502
rthumb 21.868 -11.0199
lclavicle 4.29375e-014 5.88403e-014
lhumerus -75.0382 -29.0741 130.781
lradius 60.9069
lwrist -0.859217
lhand -2.36039 -37.9393
lfingers 7.12502
lthumb 23.3277 -9.33274
rfemur -59.6484 -4.27777 38.8567
rtibia 80.9145
rfoot -22.718 -1.41764
rtoes -37.6389
lfemur -17.8543 20.0422 -16.9423
ltibia 52.0978
lfoot -32.61 3.02286
ltoes -21.0039
590
root 6.09533 16.0526 7.19591 185.699 -70.2124 -184.358
lowerback 11.863 2.30048 1.26516
upperback 8.89266 2.40752 -7.04796
thorax 3.13392 1.16635 -8.44165
lowerneck -3.20907 4.54635 -2.73623
upperneck 5.43724 4.85766 18.0129
head 1.59092 2.62869 5.99995
rclavicle -1.90833e-014 -1.90833e-014
rhumerus -64.7685 17.0857 -123.94
rradius 59.7427
rwrist 23.2784
rhand -4.56913 17.8724
rfingers 7.12502
rthumb 21.2073 -10.9875
lclavicle -1.90833e-014 -1.90833e-014
lhumerus -74.8202 -29.4935 130.513
lradius 61.0913
lwrist -0.8251
lhand -1.74317 -38.4221
lfingers 7.12502
lthumb 23.9197 -9.89192
rfemur -59.1649 -5.5802 38.5309
rtibia 76.4651
rfoot -23.0091 -2.98808
rtoes -37.7627
lfemur -17.4851 20.8909 -17.6599
ltibia 53.074
lfoot -33.1882 3.36135
ltoes -20.6609
591
root 6.10174 15.9592 7.21216 187.309 -69.431 -186.834
lowerback 12.5344 2.57332 0.469449
upperback 9.34534 2.59531 -7.42345
thorax 3.27206 1.20508 -8.44089
lowerneck -2.57145 4.58034 -2.9153
upperneck 5.11563 4.96692 18.1479
head 1.36654 2.63329 6.04798
rclavicle -3.4191e-014 -6.83819e-014
rhumerus -64.2466 16.9545 -123.719
rradius 59.507
rwrist 24.6084
rhand -5.21865 17.8911
rfingers 7.12502
rthumb 20.5833 -11.0376
lclavicle -3.4191e-014 -6.83819e-014
lhumerus -74.5925 -29.9461 130.281
lradius 61.2907
lwrist -0.774885
lhand -0.996206 -38.8706
lfingers 7.12502
lthumb 24.6358 -10.4362
rfemur -58.5893 -6.85605 38.0125
rtibia 71.6849
rfoot -23.3335 -4.48364
rtoes -37.6778
lfemur -16.9614 21.5235 -18.4413
ltibia 53.8769
lfoot -33.7724 3.60416
ltoes -20.5245
